<mxfile host="65bd71144e">
    <diagram name="Page-1" id="Lkjmjo3w-PD-YkwlmQaR">
        <mxGraphModel dx="575" dy="1204" grid="1" gridSize="10" guides="1" tooltips="1" connect="1" arrows="1" fold="1" page="1" pageScale="1" pageWidth="850" pageHeight="1100" math="0" shadow="0">
            <root>
                <mxCell id="0"/>
                <mxCell id="1" parent="0"/>
                <mxCell id="59" value="" style="rounded=1;whiteSpace=wrap;html=1;fillColor=#E6E6E6;" parent="1" vertex="1">
                    <mxGeometry x="554.37" y="1480" width="213.75" height="100" as="geometry"/>
                </mxCell>
                <mxCell id="HUbgPFjz6MRqd8MgpIkb-1" value="" style="ellipse;whiteSpace=wrap;html=1;aspect=fixed;fillColor=#000000;" parent="1" vertex="1">
                    <mxGeometry x="240" y="80" width="50" height="50" as="geometry"/>
                </mxCell>
                <mxCell id="HUbgPFjz6MRqd8MgpIkb-2" value="" style="endArrow=classic;html=1;rounded=0;exitX=0.5;exitY=1;exitDx=0;exitDy=0;" parent="1" source="HUbgPFjz6MRqd8MgpIkb-1" target="HUbgPFjz6MRqd8MgpIkb-3" edge="1">
                    <mxGeometry width="50" height="50" relative="1" as="geometry">
                        <mxPoint x="260" y="130" as="sourcePoint"/>
                        <mxPoint x="265" y="190" as="targetPoint"/>
                    </mxGeometry>
                </mxCell>
                <mxCell id="HUbgPFjz6MRqd8MgpIkb-5" value="" style="edgeStyle=orthogonalEdgeStyle;rounded=0;orthogonalLoop=1;jettySize=auto;html=1;" parent="1" source="HUbgPFjz6MRqd8MgpIkb-3" edge="1">
                    <mxGeometry relative="1" as="geometry">
                        <mxPoint x="265" y="350" as="targetPoint"/>
                    </mxGeometry>
                </mxCell>
                <mxCell id="HUbgPFjz6MRqd8MgpIkb-3" value="loadJSON" style="rounded=1;whiteSpace=wrap;html=1;fillColor=#FFFFFF;" parent="1" vertex="1">
                    <mxGeometry x="205" y="210" width="120" height="60" as="geometry"/>
                </mxCell>
                <mxCell id="HUbgPFjz6MRqd8MgpIkb-17" value="" style="edgeStyle=orthogonalEdgeStyle;rounded=0;orthogonalLoop=1;jettySize=auto;html=1;" parent="1" source="HUbgPFjz6MRqd8MgpIkb-6" target="HUbgPFjz6MRqd8MgpIkb-16" edge="1">
                    <mxGeometry relative="1" as="geometry"/>
                </mxCell>
                <mxCell id="HUbgPFjz6MRqd8MgpIkb-23" value="" style="edgeStyle=orthogonalEdgeStyle;rounded=0;orthogonalLoop=1;jettySize=auto;html=1;entryX=0.5;entryY=0;entryDx=0;entryDy=0;" parent="1" source="HUbgPFjz6MRqd8MgpIkb-6" target="HUbgPFjz6MRqd8MgpIkb-8" edge="1">
                    <mxGeometry relative="1" as="geometry"/>
                </mxCell>
                <mxCell id="HUbgPFjz6MRqd8MgpIkb-6" value="prepareObjects" style="rounded=1;whiteSpace=wrap;html=1;fillColor=#FFFFFF;" parent="1" vertex="1">
                    <mxGeometry x="205" y="350" width="120" height="60" as="geometry"/>
                </mxCell>
                <mxCell id="HUbgPFjz6MRqd8MgpIkb-8" value="animals" style="rounded=0;whiteSpace=wrap;html=1;fillColor=#FFFFFF;" parent="1" vertex="1">
                    <mxGeometry x="232.5" y="460" width="65" height="20" as="geometry"/>
                </mxCell>
                <mxCell id="HUbgPFjz6MRqd8MgpIkb-24" value="" style="edgeStyle=orthogonalEdgeStyle;rounded=0;orthogonalLoop=1;jettySize=auto;html=1;" parent="1" source="HUbgPFjz6MRqd8MgpIkb-9" target="HUbgPFjz6MRqd8MgpIkb-13" edge="1">
                    <mxGeometry relative="1" as="geometry"/>
                </mxCell>
                <mxCell id="HUbgPFjz6MRqd8MgpIkb-9" value="displayList" style="rounded=1;whiteSpace=wrap;html=1;fillColor=#FFFFFF;" parent="1" vertex="1">
                    <mxGeometry x="205" y="480" width="120" height="60" as="geometry"/>
                </mxCell>
                <mxCell id="HUbgPFjz6MRqd8MgpIkb-11" value="displayAnimal" style="rounded=1;whiteSpace=wrap;html=1;fillColor=#FFFFFF;" parent="1" vertex="1">
                    <mxGeometry x="205" y="600" width="120" height="60" as="geometry"/>
                </mxCell>
                <mxCell id="HUbgPFjz6MRqd8MgpIkb-13" value="animal" style="rounded=0;whiteSpace=wrap;html=1;fillColor=#FFFFFF;" parent="1" vertex="1">
                    <mxGeometry x="232.5" y="580" width="65" height="20" as="geometry"/>
                </mxCell>
                <mxCell id="HUbgPFjz6MRqd8MgpIkb-22" value="" style="edgeStyle=orthogonalEdgeStyle;rounded=0;orthogonalLoop=1;jettySize=auto;html=1;" parent="1" source="HUbgPFjz6MRqd8MgpIkb-14" target="HUbgPFjz6MRqd8MgpIkb-9" edge="1">
                    <mxGeometry relative="1" as="geometry"/>
                </mxCell>
                <mxCell id="HUbgPFjz6MRqd8MgpIkb-14" value="filterList" style="rounded=1;whiteSpace=wrap;html=1;fillColor=#FFFFFF;" parent="1" vertex="1">
                    <mxGeometry x="365" y="480" width="120" height="60" as="geometry"/>
                </mxCell>
                <mxCell id="HUbgPFjz6MRqd8MgpIkb-16" value="prepareObject" style="rounded=1;whiteSpace=wrap;html=1;fillColor=#FFFFFF;" parent="1" vertex="1">
                    <mxGeometry x="420" y="350" width="120" height="60" as="geometry"/>
                </mxCell>
                <mxCell id="HUbgPFjz6MRqd8MgpIkb-18" value="filterBy" style="rounded=0;whiteSpace=wrap;html=1;fillColor=#FFFFFF;" parent="1" vertex="1">
                    <mxGeometry x="460" y="500" width="65" height="20" as="geometry"/>
                </mxCell>
                <mxCell id="HUbgPFjz6MRqd8MgpIkb-30" value="" style="edgeStyle=orthogonalEdgeStyle;rounded=0;orthogonalLoop=1;jettySize=auto;html=1;" parent="1" source="HUbgPFjz6MRqd8MgpIkb-21" target="HUbgPFjz6MRqd8MgpIkb-28" edge="1">
                    <mxGeometry relative="1" as="geometry"/>
                </mxCell>
                <mxCell id="HUbgPFjz6MRqd8MgpIkb-21" value="select&amp;nbsp;&lt;br&gt;user&amp;nbsp;&lt;br&gt;filter&lt;br&gt;" style="shape=step;perimeter=stepPerimeter;whiteSpace=wrap;html=1;fixedSize=1;fillColor=#FFFFFF;" parent="1" vertex="1">
                    <mxGeometry x="800" y="475" width="105" height="70" as="geometry"/>
                </mxCell>
                <mxCell id="HUbgPFjz6MRqd8MgpIkb-26" value="" style="edgeStyle=orthogonalEdgeStyle;rounded=0;orthogonalLoop=1;jettySize=auto;html=1;" parent="1" source="HUbgPFjz6MRqd8MgpIkb-25" target="HUbgPFjz6MRqd8MgpIkb-18" edge="1">
                    <mxGeometry relative="1" as="geometry"/>
                </mxCell>
                <mxCell id="HUbgPFjz6MRqd8MgpIkb-25" value="selectFilter" style="rounded=1;whiteSpace=wrap;html=1;fillColor=#FFFFFF;" parent="1" vertex="1">
                    <mxGeometry x="595" y="480" width="120" height="60" as="geometry"/>
                </mxCell>
                <mxCell id="HUbgPFjz6MRqd8MgpIkb-28" value="event" style="rounded=0;whiteSpace=wrap;html=1;fillColor=#FFFFFF;" parent="1" vertex="1">
                    <mxGeometry x="690" y="500" width="65" height="20" as="geometry"/>
                </mxCell>
                <mxCell id="HUbgPFjz6MRqd8MgpIkb-36" value="" style="edgeStyle=orthogonalEdgeStyle;rounded=0;orthogonalLoop=1;jettySize=auto;html=1;" parent="1" source="HUbgPFjz6MRqd8MgpIkb-31" target="HUbgPFjz6MRqd8MgpIkb-35" edge="1">
                    <mxGeometry relative="1" as="geometry"/>
                </mxCell>
                <mxCell id="HUbgPFjz6MRqd8MgpIkb-31" value="select&amp;nbsp;&lt;br&gt;user&lt;br&gt;sort&lt;br&gt;" style="shape=step;perimeter=stepPerimeter;whiteSpace=wrap;html=1;fixedSize=1;fillColor=#FFFFFF;" parent="1" vertex="1">
                    <mxGeometry x="800" y="570" width="105" height="70" as="geometry"/>
                </mxCell>
                <mxCell id="HUbgPFjz6MRqd8MgpIkb-43" value="" style="edgeStyle=orthogonalEdgeStyle;rounded=0;orthogonalLoop=1;jettySize=auto;html=1;" parent="1" source="HUbgPFjz6MRqd8MgpIkb-34" target="HUbgPFjz6MRqd8MgpIkb-39" edge="1">
                    <mxGeometry relative="1" as="geometry"/>
                </mxCell>
                <mxCell id="HUbgPFjz6MRqd8MgpIkb-34" value="selectSort" style="rounded=1;whiteSpace=wrap;html=1;fillColor=#FFFFFF;" parent="1" vertex="1">
                    <mxGeometry x="595" y="575" width="120" height="60" as="geometry"/>
                </mxCell>
                <mxCell id="HUbgPFjz6MRqd8MgpIkb-35" value="event" style="rounded=0;whiteSpace=wrap;html=1;fillColor=#FFFFFF;" parent="1" vertex="1">
                    <mxGeometry x="690" y="595" width="65" height="20" as="geometry"/>
                </mxCell>
                <mxCell id="HUbgPFjz6MRqd8MgpIkb-37" value="sortList" style="rounded=1;whiteSpace=wrap;html=1;fillColor=#FFFFFF;" parent="1" vertex="1">
                    <mxGeometry x="400" y="575" width="120" height="60" as="geometry"/>
                </mxCell>
                <mxCell id="HUbgPFjz6MRqd8MgpIkb-39" value="sortBy" style="rounded=0;whiteSpace=wrap;html=1;fillColor=#FFFFFF;" parent="1" vertex="1">
                    <mxGeometry x="495" y="595" width="65" height="20" as="geometry"/>
                </mxCell>
                <mxCell id="HUbgPFjz6MRqd8MgpIkb-45" value="" style="curved=1;endArrow=classic;html=1;rounded=0;exitX=0;exitY=0.5;exitDx=0;exitDy=0;entryX=1;entryY=0.75;entryDx=0;entryDy=0;" parent="1" source="HUbgPFjz6MRqd8MgpIkb-37" target="HUbgPFjz6MRqd8MgpIkb-9" edge="1">
                    <mxGeometry width="50" height="50" relative="1" as="geometry">
                        <mxPoint x="325" y="600" as="sourcePoint"/>
                        <mxPoint x="375" y="550" as="targetPoint"/>
                        <Array as="points">
                            <mxPoint x="375" y="600"/>
                            <mxPoint x="350" y="525"/>
                        </Array>
                    </mxGeometry>
                </mxCell>
                <mxCell id="11" value="" style="edgeStyle=none;html=1;" parent="1" source="2" target="5" edge="1">
                    <mxGeometry relative="1" as="geometry"/>
                </mxCell>
                <mxCell id="2" value="select&amp;nbsp;&lt;br&gt;user&amp;nbsp;&lt;br&gt;filter&lt;br&gt;" style="shape=step;perimeter=stepPerimeter;whiteSpace=wrap;html=1;fixedSize=1;fillColor=#FFCCE6;" parent="1" vertex="1">
                    <mxGeometry x="311.25" y="1100" width="105" height="70" as="geometry"/>
                </mxCell>
                <mxCell id="12" value="" style="edgeStyle=none;html=1;" parent="1" source="4" target="6" edge="1">
                    <mxGeometry relative="1" as="geometry"/>
                </mxCell>
                <mxCell id="4" value="select&amp;nbsp;&lt;br&gt;user&lt;br&gt;sort&lt;br&gt;" style="shape=step;perimeter=stepPerimeter;whiteSpace=wrap;html=1;fixedSize=1;fillColor=#FFCCE6;" parent="1" vertex="1">
                    <mxGeometry x="886.25" y="1100" width="105" height="70" as="geometry"/>
                </mxCell>
                <mxCell id="9" value="" style="edgeStyle=none;html=1;entryX=0.212;entryY=0.01;entryDx=0;entryDy=0;entryPerimeter=0;" parent="1" source="5" target="7" edge="1">
                    <mxGeometry relative="1" as="geometry">
                        <mxPoint x="626.25" y="1200" as="targetPoint"/>
                        <Array as="points">
                            <mxPoint x="531.25" y="1180"/>
                            <mxPoint x="626.25" y="1180"/>
                        </Array>
                    </mxGeometry>
                </mxCell>
                <mxCell id="5" value="setFilter" style="rounded=1;whiteSpace=wrap;html=1;fillColor=#FFFFFF;" parent="1" vertex="1">
                    <mxGeometry x="471.25" y="1105" width="120" height="60" as="geometry"/>
                </mxCell>
                <mxCell id="10" style="edgeStyle=none;html=1;entryX=0.75;entryY=0;entryDx=0;entryDy=0;" parent="1" source="6" target="7" edge="1">
                    <mxGeometry relative="1" as="geometry">
                        <Array as="points">
                            <mxPoint x="786.25" y="1180"/>
                            <mxPoint x="691.25" y="1180"/>
                        </Array>
                    </mxGeometry>
                </mxCell>
                <mxCell id="6" value="setSort" style="rounded=1;whiteSpace=wrap;html=1;fillColor=#FFFFFF;" parent="1" vertex="1">
                    <mxGeometry x="726.25" y="1105" width="120" height="60" as="geometry"/>
                </mxCell>
                <mxCell id="18" style="edgeStyle=none;html=1;entryX=1;entryY=0.5;entryDx=0;entryDy=0;exitX=0;exitY=0.5;exitDx=0;exitDy=0;" parent="1" source="7" target="14" edge="1">
                    <mxGeometry relative="1" as="geometry"/>
                </mxCell>
                <mxCell id="19" style="edgeStyle=none;html=1;entryX=0;entryY=0.5;entryDx=0;entryDy=0;exitX=1;exitY=0.5;exitDx=0;exitDy=0;" parent="1" source="7" target="16" edge="1">
                    <mxGeometry relative="1" as="geometry">
                        <Array as="points"/>
                    </mxGeometry>
                </mxCell>
                <mxCell id="36" value="" style="edgeStyle=none;html=1;" parent="1" source="7" target="35" edge="1">
                    <mxGeometry relative="1" as="geometry"/>
                </mxCell>
                <mxCell id="7" value="buildList" style="rounded=1;whiteSpace=wrap;html=1;fillColor=#FFFFFF;" parent="1" vertex="1">
                    <mxGeometry x="601.25" y="1220" width="120" height="60" as="geometry"/>
                </mxCell>
                <mxCell id="14" value="filterList" style="rounded=1;whiteSpace=wrap;html=1;fillColor=#FFFFFF;" parent="1" vertex="1">
                    <mxGeometry x="311.25" y="1220" width="120" height="60" as="geometry"/>
                </mxCell>
                <mxCell id="15" value="filteredList" style="rounded=0;whiteSpace=wrap;html=1;fillColor=#FFFF99;" parent="1" vertex="1">
                    <mxGeometry x="396.25" y="1210" width="65" height="20" as="geometry"/>
                </mxCell>
                <mxCell id="16" value="sortList" style="rounded=1;whiteSpace=wrap;html=1;fillColor=#FFFFFF;" parent="1" vertex="1">
                    <mxGeometry x="878.75" y="1220" width="120" height="60" as="geometry"/>
                </mxCell>
                <mxCell id="33" value="" style="html=1;labelBackgroundColor=#ffffff;startArrow=none;startFill=0;startSize=6;endArrow=classic;endFill=1;endSize=6;jettySize=auto;orthogonalLoop=1;strokeWidth=1;dashed=1;fontSize=14;exitX=0;exitY=0.75;exitDx=0;exitDy=0;entryX=1;entryY=0.75;entryDx=0;entryDy=0;" parent="1" source="16" target="7" edge="1">
                    <mxGeometry width="60" height="60" relative="1" as="geometry">
                        <mxPoint x="796.25" y="1150" as="sourcePoint"/>
                        <mxPoint x="856.25" y="1090" as="targetPoint"/>
                    </mxGeometry>
                </mxCell>
                <mxCell id="34" value="" style="html=1;labelBackgroundColor=#ffffff;startArrow=none;startFill=0;startSize=6;endArrow=classic;endFill=1;endSize=6;jettySize=auto;orthogonalLoop=1;strokeWidth=1;dashed=1;fontSize=14;exitX=1;exitY=0.75;exitDx=0;exitDy=0;entryX=0;entryY=0.75;entryDx=0;entryDy=0;" parent="1" source="14" target="7" edge="1">
                    <mxGeometry width="60" height="60" relative="1" as="geometry">
                        <mxPoint x="618.75" y="1300" as="sourcePoint"/>
                        <mxPoint x="461.25" y="1300" as="targetPoint"/>
                    </mxGeometry>
                </mxCell>
                <mxCell id="55" style="edgeStyle=none;html=1;entryX=0.5;entryY=0;entryDx=0;entryDy=0;" parent="1" source="35" target="59" edge="1">
                    <mxGeometry relative="1" as="geometry">
                        <mxPoint x="660" y="1490" as="targetPoint"/>
                    </mxGeometry>
                </mxCell>
                <mxCell id="35" value="displayList" style="rounded=1;whiteSpace=wrap;html=1;fillColor=#FFFFFF;" parent="1" vertex="1">
                    <mxGeometry x="601.25" y="1320" width="120" height="60" as="geometry"/>
                </mxCell>
                <mxCell id="37" value="filter" style="rounded=0;whiteSpace=wrap;html=1;fillColor=#99FFFF;" parent="1" vertex="1">
                    <mxGeometry x="120" y="1080" width="120" height="40" as="geometry"/>
                </mxCell>
                <mxCell id="38" value="sortBy" style="rounded=0;whiteSpace=wrap;html=1;fillColor=#99FFFF;" parent="1" vertex="1">
                    <mxGeometry x="120" y="1140" width="120" height="40" as="geometry"/>
                </mxCell>
                <mxCell id="39" value="sortDir" style="rounded=0;whiteSpace=wrap;html=1;fillColor=#99FFFF;" parent="1" vertex="1">
                    <mxGeometry x="120" y="1200" width="120" height="40" as="geometry"/>
                </mxCell>
                <mxCell id="40" value="filter" style="rounded=0;whiteSpace=wrap;html=1;fillColor=#FFFF99;" parent="1" vertex="1">
                    <mxGeometry x="456.25" y="1100" width="65" height="20" as="geometry"/>
                </mxCell>
                <mxCell id="44" value="sortedList" style="rounded=0;whiteSpace=wrap;html=1;fillColor=#FFFF99;" parent="1" vertex="1">
                    <mxGeometry x="856.25" y="1210" width="65" height="20" as="geometry"/>
                </mxCell>
                <mxCell id="45" value="settings" style="rounded=0;whiteSpace=wrap;html=1;fillColor=#66B2FF;" parent="1" vertex="1">
                    <mxGeometry x="147.5" y="1050" width="65" height="20" as="geometry"/>
                </mxCell>
                <mxCell id="46" value="sortBy, sortDir" style="rounded=0;whiteSpace=wrap;html=1;fillColor=#FFFF99;" parent="1" vertex="1">
                    <mxGeometry x="676.25" y="1100" width="100" height="20" as="geometry"/>
                </mxCell>
                <mxCell id="47" value="" style="endArrow=classic;html=1;rounded=0;exitX=0.5;exitY=1;exitDx=0;exitDy=0;" parent="1" target="49" edge="1">
                    <mxGeometry width="50" height="50" relative="1" as="geometry">
                        <mxPoint x="661.25" y="850" as="sourcePoint"/>
                        <mxPoint x="661.25" y="910" as="targetPoint"/>
                    </mxGeometry>
                </mxCell>
                <mxCell id="48" value="" style="edgeStyle=orthogonalEdgeStyle;rounded=0;orthogonalLoop=1;jettySize=auto;html=1;" parent="1" source="49" edge="1">
                    <mxGeometry relative="1" as="geometry">
                        <mxPoint x="661.25" y="1020" as="targetPoint"/>
                    </mxGeometry>
                </mxCell>
                <mxCell id="49" value="loadJSON" style="rounded=1;whiteSpace=wrap;html=1;fillColor=#FFFFFF;" parent="1" vertex="1">
                    <mxGeometry x="601.25" y="930" width="120" height="60" as="geometry"/>
                </mxCell>
                <mxCell id="52" style="edgeStyle=none;html=1;entryX=0.5;entryY=0;entryDx=0;entryDy=0;" parent="1" source="50" target="7" edge="1">
                    <mxGeometry relative="1" as="geometry"/>
                </mxCell>
                <mxCell id="50" value="prepareObjects" style="rounded=1;whiteSpace=wrap;html=1;fillColor=#FFFFFF;" parent="1" vertex="1">
                    <mxGeometry x="601.25" y="1020" width="120" height="60" as="geometry"/>
                </mxCell>
                <mxCell id="51" value="" style="ellipse;whiteSpace=wrap;html=1;aspect=fixed;fillColor=#000000;" parent="1" vertex="1">
                    <mxGeometry x="636.25" y="850" width="50" height="50" as="geometry"/>
                </mxCell>
                <mxCell id="53" value="displayAnimal" style="rounded=1;whiteSpace=wrap;html=1;fillColor=#FFFFFF;" parent="1" vertex="1">
                    <mxGeometry x="598.12" y="1480" width="121.25" height="60" as="geometry"/>
                </mxCell>
                <mxCell id="54" value="animal" style="rounded=0;whiteSpace=wrap;html=1;fillColor=#FFFF99;" parent="1" vertex="1">
                    <mxGeometry x="690" y="1460" width="65" height="20" as="geometry"/>
                </mxCell>
                <mxCell id="62" style="edgeStyle=none;html=1;exitX=0;exitY=0.5;exitDx=0;exitDy=0;" parent="1" source="57" target="61" edge="1">
                    <mxGeometry relative="1" as="geometry"/>
                </mxCell>
                <mxCell id="57" value="select&amp;nbsp;&lt;br&gt;user&lt;br&gt;star" style="shape=step;perimeter=stepPerimeter;whiteSpace=wrap;html=1;fixedSize=1;fillColor=#FFCCE6;" parent="1" vertex="1">
                    <mxGeometry x="921.25" y="1494.71" width="105" height="70" as="geometry"/>
                </mxCell>
                <mxCell id="60" value="clickStar" style="rounded=1;whiteSpace=wrap;html=1;fillColor=#FFFFFF;" parent="1" vertex="1">
                    <mxGeometry x="617.8100000000001" y="1540" width="81.88" height="40" as="geometry"/>
                </mxCell>
                <mxCell id="65" style="edgeStyle=none;html=1;exitX=0.5;exitY=0;exitDx=0;exitDy=0;entryX=1;entryY=0.25;entryDx=0;entryDy=0;" parent="1" source="61" target="59" edge="1">
                    <mxGeometry relative="1" as="geometry">
                        <Array as="points">
                            <mxPoint x="871" y="1505"/>
                        </Array>
                    </mxGeometry>
                </mxCell>
                <mxCell id="67" value="true" style="edgeLabel;html=1;align=center;verticalAlign=middle;resizable=0;points=[];fillColor=#CCFF99;" parent="65" vertex="1" connectable="0">
                    <mxGeometry x="0.2935" y="-3" relative="1" as="geometry">
                        <mxPoint x="10" as="offset"/>
                    </mxGeometry>
                </mxCell>
                <mxCell id="66" style="edgeStyle=none;html=1;exitX=0.5;exitY=1;exitDx=0;exitDy=0;entryX=1;entryY=0.75;entryDx=0;entryDy=0;" parent="1" source="61" target="59" edge="1">
                    <mxGeometry relative="1" as="geometry">
                        <Array as="points">
                            <mxPoint x="871" y="1555"/>
                        </Array>
                    </mxGeometry>
                </mxCell>
                <mxCell id="68" value="false" style="edgeLabel;html=1;align=center;verticalAlign=middle;resizable=0;points=[];shadow=1;" parent="66" vertex="1" connectable="0">
                    <mxGeometry x="0.1474" y="1" relative="1" as="geometry">
                        <mxPoint as="offset"/>
                    </mxGeometry>
                </mxCell>
                <mxCell id="61" value="" style="rhombus;whiteSpace=wrap;html=1;fillColor=none;" parent="1" vertex="1">
                    <mxGeometry x="856.25" y="1514.71" width="30" height="30" as="geometry"/>
                </mxCell>
                <mxCell id="72" value="" style="html=1;labelBackgroundColor=#ffffff;startArrow=none;startFill=0;startSize=6;endArrow=classic;endFill=1;endSize=6;jettySize=auto;orthogonalLoop=1;strokeWidth=1;dashed=1;fontSize=14;entryX=0.25;entryY=1;entryDx=0;entryDy=0;exitX=0;exitY=0.5;exitDx=0;exitDy=0;" parent="1" source="74" target="7" edge="1">
                    <mxGeometry width="60" height="60" relative="1" as="geometry">
                        <mxPoint x="480" y="1540" as="sourcePoint"/>
                        <mxPoint x="540" y="1480" as="targetPoint"/>
                        <Array as="points">
                            <mxPoint x="470" y="1500"/>
                            <mxPoint x="470" y="1310"/>
                            <mxPoint x="630" y="1310"/>
                        </Array>
                    </mxGeometry>
                </mxCell>
                <mxCell id="82" value="if star is&lt;br&gt;true =&lt;br&gt;false" style="edgeLabel;html=1;align=center;verticalAlign=middle;resizable=0;points=[];" parent="72" vertex="1" connectable="0">
                    <mxGeometry x="-0.5442" relative="1" as="geometry">
                        <mxPoint as="offset"/>
                    </mxGeometry>
                </mxCell>
                <mxCell id="75" value="" style="html=1;labelBackgroundColor=#ffffff;startArrow=none;startFill=0;startSize=6;endArrow=none;endFill=1;endSize=6;jettySize=auto;orthogonalLoop=1;strokeWidth=1;dashed=1;fontSize=14;entryX=0.25;entryY=1;entryDx=0;entryDy=0;exitX=0;exitY=0.5;exitDx=0;exitDy=0;" parent="1" source="59" target="74" edge="1">
                    <mxGeometry width="60" height="60" relative="1" as="geometry">
                        <mxPoint x="554.3699999999999" y="1530" as="sourcePoint"/>
                        <mxPoint x="631.25" y="1280" as="targetPoint"/>
                        <Array as="points">
                            <mxPoint x="500" y="1530"/>
                        </Array>
                    </mxGeometry>
                </mxCell>
                <mxCell id="74" value="" style="rhombus;whiteSpace=wrap;html=1;fillColor=none;" parent="1" vertex="1">
                    <mxGeometry x="485" y="1484.71" width="30" height="30" as="geometry"/>
                </mxCell>
                <mxCell id="81" value="" style="endArrow=none;dashed=1;html=1;" parent="1" edge="1">
                    <mxGeometry width="50" height="50" relative="1" as="geometry">
                        <mxPoint x="515" y="1500" as="sourcePoint"/>
                        <mxPoint x="530" y="1310" as="targetPoint"/>
                        <Array as="points">
                            <mxPoint x="530" y="1500"/>
                        </Array>
                    </mxGeometry>
                </mxCell>
                <mxCell id="84" value="if star is&lt;br&gt;false =&lt;br&gt;true" style="edgeLabel;html=1;align=center;verticalAlign=middle;resizable=0;points=[];" parent="81" vertex="1" connectable="0">
                    <mxGeometry x="-0.1059" relative="1" as="geometry">
                        <mxPoint as="offset"/>
                    </mxGeometry>
                </mxCell>
                <mxCell id="85" value="" style="ellipse;html=1;shape=endState;fillColor=#000000;strokeColor=#ff0000;" vertex="1" parent="1">
                    <mxGeometry x="1350" y="1450" width="50" height="50" as="geometry"/>
                </mxCell>
                <mxCell id="110" value="" style="edgeStyle=none;html=1;" edge="1" parent="1" source="86" target="87">
                    <mxGeometry relative="1" as="geometry"/>
                </mxCell>
                <mxCell id="86" value="assignStudentPrefect" style="rounded=1;whiteSpace=wrap;html=1;fillColor=#FFFFFF;" vertex="1" parent="1">
                    <mxGeometry x="1550" y="930" width="140" height="60" as="geometry"/>
                </mxCell>
                <mxCell id="111" style="edgeStyle=none;html=1;entryX=0.5;entryY=0;entryDx=0;entryDy=0;" edge="1" parent="1" source="87" target="101">
                    <mxGeometry relative="1" as="geometry">
                        <mxPoint x="1950.0000000000005" y="1090" as="targetPoint"/>
                        <Array as="points">
                            <mxPoint x="1890" y="1060"/>
                        </Array>
                    </mxGeometry>
                </mxCell>
                <mxCell id="112" value="[another of same gender]" style="edgeLabel;html=1;align=center;verticalAlign=middle;resizable=0;points=[];" vertex="1" connectable="0" parent="111">
                    <mxGeometry x="-0.3826" y="2" relative="1" as="geometry">
                        <mxPoint x="29" y="1" as="offset"/>
                    </mxGeometry>
                </mxCell>
                <mxCell id="113" style="edgeStyle=none;html=1;entryX=0.5;entryY=0;entryDx=0;entryDy=0;" edge="1" parent="1" source="87" target="88">
                    <mxGeometry relative="1" as="geometry">
                        <Array as="points">
                            <mxPoint x="1460" y="1060"/>
                            <mxPoint x="1375" y="1060"/>
                        </Array>
                    </mxGeometry>
                </mxCell>
                <mxCell id="114" value="[two prefects from same house]" style="edgeLabel;html=1;align=center;verticalAlign=middle;resizable=0;points=[];" vertex="1" connectable="0" parent="113">
                    <mxGeometry x="-0.0108" y="-1" relative="1" as="geometry">
                        <mxPoint x="41" y="1" as="offset"/>
                    </mxGeometry>
                </mxCell>
                <mxCell id="87" value="" style="rhombus;whiteSpace=wrap;html=1;fillColor=none;" vertex="1" parent="1">
                    <mxGeometry x="1605" y="1045" width="30" height="30" as="geometry"/>
                </mxCell>
                <mxCell id="116" style="edgeStyle=none;html=1;entryX=0.5;entryY=0;entryDx=0;entryDy=0;" edge="1" parent="1" source="88" target="89">
                    <mxGeometry relative="1" as="geometry"/>
                </mxCell>
                <mxCell id="88" value="ignore&lt;br&gt;remove A or&lt;br&gt;remove B" style="rounded=1;whiteSpace=wrap;html=1;fillColor=#FFFFFF;" vertex="1" parent="1">
                    <mxGeometry x="1315" y="1105" width="120" height="60" as="geometry"/>
                </mxCell>
                <mxCell id="117" style="edgeStyle=none;html=1;entryX=0.5;entryY=0;entryDx=0;entryDy=0;" edge="1" parent="1" source="89" target="95">
                    <mxGeometry relative="1" as="geometry">
                        <Array as="points">
                            <mxPoint x="1215" y="1210"/>
                        </Array>
                    </mxGeometry>
                </mxCell>
                <mxCell id="118" value="[Ignore]" style="edgeLabel;html=1;align=center;verticalAlign=middle;resizable=0;points=[];" vertex="1" connectable="0" parent="117">
                    <mxGeometry x="-0.6125" y="-3" relative="1" as="geometry">
                        <mxPoint as="offset"/>
                    </mxGeometry>
                </mxCell>
                <mxCell id="119" style="edgeStyle=none;html=1;" edge="1" parent="1" source="89" target="93">
                    <mxGeometry relative="1" as="geometry"/>
                </mxCell>
                <mxCell id="120" value="remove B" style="edgeLabel;html=1;align=center;verticalAlign=middle;resizable=0;points=[];" vertex="1" connectable="0" parent="119">
                    <mxGeometry x="-0.1619" y="-1" relative="1" as="geometry">
                        <mxPoint as="offset"/>
                    </mxGeometry>
                </mxCell>
                <mxCell id="123" style="edgeStyle=none;html=1;entryX=0.5;entryY=0;entryDx=0;entryDy=0;" edge="1" parent="1" source="89" target="97">
                    <mxGeometry relative="1" as="geometry">
                        <Array as="points">
                            <mxPoint x="1545" y="1210"/>
                        </Array>
                    </mxGeometry>
                </mxCell>
                <mxCell id="124" value="[Remove A]" style="edgeLabel;html=1;align=center;verticalAlign=middle;resizable=0;points=[];" vertex="1" connectable="0" parent="123">
                    <mxGeometry x="-0.5307" y="1" relative="1" as="geometry">
                        <mxPoint x="28" y="1" as="offset"/>
                    </mxGeometry>
                </mxCell>
                <mxCell id="89" value="" style="rhombus;whiteSpace=wrap;html=1;fillColor=none;" vertex="1" parent="1">
                    <mxGeometry x="1360" y="1195" width="30" height="30" as="geometry"/>
                </mxCell>
                <mxCell id="121" style="edgeStyle=none;html=1;exitX=0.5;exitY=1;exitDx=0;exitDy=0;" edge="1" parent="1" source="93" target="94">
                    <mxGeometry relative="1" as="geometry"/>
                </mxCell>
                <mxCell id="93" value="removePrefect" style="rounded=1;whiteSpace=wrap;html=1;fillColor=#FFFFFF;" vertex="1" parent="1">
                    <mxGeometry x="1315" y="1255" width="120" height="60" as="geometry"/>
                </mxCell>
                <mxCell id="122" style="edgeStyle=none;html=1;exitX=0.5;exitY=1;exitDx=0;exitDy=0;entryX=0.5;entryY=0;entryDx=0;entryDy=0;" edge="1" parent="1" source="94" target="85">
                    <mxGeometry relative="1" as="geometry"/>
                </mxCell>
                <mxCell id="94" value="assignPrefect" style="rounded=1;whiteSpace=wrap;html=1;fillColor=#FFFFFF;" vertex="1" parent="1">
                    <mxGeometry x="1315" y="1345" width="120" height="60" as="geometry"/>
                </mxCell>
                <mxCell id="95" value="" style="ellipse;html=1;shape=endState;fillColor=#000000;strokeColor=#ff0000;" vertex="1" parent="1">
                    <mxGeometry x="1190" y="1449.71" width="50" height="50" as="geometry"/>
                </mxCell>
                <mxCell id="126" value="" style="edgeStyle=none;html=1;" edge="1" parent="1" source="97" target="98">
                    <mxGeometry relative="1" as="geometry"/>
                </mxCell>
                <mxCell id="97" value="removePrefect" style="rounded=1;whiteSpace=wrap;html=1;fillColor=#FFFFFF;" vertex="1" parent="1">
                    <mxGeometry x="1485" y="1255" width="120" height="60" as="geometry"/>
                </mxCell>
                <mxCell id="125" style="edgeStyle=none;html=1;entryX=0.5;entryY=0;entryDx=0;entryDy=0;" edge="1" parent="1" source="98" target="100">
                    <mxGeometry relative="1" as="geometry"/>
                </mxCell>
                <mxCell id="98" value="assignPrefect" style="rounded=1;whiteSpace=wrap;html=1;fillColor=#FFFFFF;" vertex="1" parent="1">
                    <mxGeometry x="1485" y="1345" width="120" height="60" as="geometry"/>
                </mxCell>
                <mxCell id="100" value="" style="ellipse;html=1;shape=endState;fillColor=#000000;strokeColor=#ff0000;" vertex="1" parent="1">
                    <mxGeometry x="1520" y="1450" width="50" height="50" as="geometry"/>
                </mxCell>
                <mxCell id="130" style="edgeStyle=none;html=1;exitX=0.5;exitY=1;exitDx=0;exitDy=0;entryX=0.5;entryY=0;entryDx=0;entryDy=0;" edge="1" parent="1" source="101" target="103">
                    <mxGeometry relative="1" as="geometry"/>
                </mxCell>
                <mxCell id="101" value="loadJSON" style="rounded=1;whiteSpace=wrap;html=1;fillColor=#FFFFFF;" vertex="1" parent="1">
                    <mxGeometry x="1830" y="1099.71" width="120" height="60" as="geometry"/>
                </mxCell>
                <mxCell id="127" style="edgeStyle=none;html=1;entryX=0.5;entryY=0;entryDx=0;entryDy=0;" edge="1" parent="1" source="103" target="105">
                    <mxGeometry relative="1" as="geometry">
                        <Array as="points">
                            <mxPoint x="1780" y="1204.71"/>
                        </Array>
                    </mxGeometry>
                </mxCell>
                <mxCell id="132" value="[Remove]" style="edgeLabel;html=1;align=center;verticalAlign=middle;resizable=0;points=[];" vertex="1" connectable="0" parent="127">
                    <mxGeometry x="-0.4059" y="2" relative="1" as="geometry">
                        <mxPoint x="-4" y="-2" as="offset"/>
                    </mxGeometry>
                </mxCell>
                <mxCell id="133" style="edgeStyle=none;html=1;exitX=1;exitY=0.5;exitDx=0;exitDy=0;entryX=0.5;entryY=0;entryDx=0;entryDy=0;" edge="1" parent="1" source="103" target="108">
                    <mxGeometry relative="1" as="geometry">
                        <Array as="points">
                            <mxPoint x="1985" y="1204.71"/>
                        </Array>
                    </mxGeometry>
                </mxCell>
                <mxCell id="135" value="[Ignore]" style="edgeLabel;html=1;align=center;verticalAlign=middle;resizable=0;points=[];" vertex="1" connectable="0" parent="133">
                    <mxGeometry x="-0.8442" y="1" relative="1" as="geometry">
                        <mxPoint x="10" y="1" as="offset"/>
                    </mxGeometry>
                </mxCell>
                <mxCell id="103" value="" style="rhombus;whiteSpace=wrap;html=1;fillColor=none;" vertex="1" parent="1">
                    <mxGeometry x="1875" y="1189.71" width="30" height="30" as="geometry"/>
                </mxCell>
                <mxCell id="128" style="edgeStyle=none;html=1;exitX=0.5;exitY=1;exitDx=0;exitDy=0;entryX=0.5;entryY=0;entryDx=0;entryDy=0;" edge="1" parent="1" source="105" target="106">
                    <mxGeometry relative="1" as="geometry"/>
                </mxCell>
                <mxCell id="105" value="removePrefect" style="rounded=1;whiteSpace=wrap;html=1;fillColor=#FFFFFF;" vertex="1" parent="1">
                    <mxGeometry x="1720" y="1249.71" width="120" height="60" as="geometry"/>
                </mxCell>
                <mxCell id="129" style="edgeStyle=none;html=1;exitX=0.5;exitY=1;exitDx=0;exitDy=0;" edge="1" parent="1" source="106" target="107">
                    <mxGeometry relative="1" as="geometry"/>
                </mxCell>
                <mxCell id="106" value="makePrefect" style="rounded=1;whiteSpace=wrap;html=1;fillColor=#FFFFFF;" vertex="1" parent="1">
                    <mxGeometry x="1720" y="1339.71" width="120" height="60" as="geometry"/>
                </mxCell>
                <mxCell id="107" value="" style="ellipse;html=1;shape=endState;fillColor=#000000;strokeColor=#ff0000;" vertex="1" parent="1">
                    <mxGeometry x="1755" y="1444.71" width="50" height="50" as="geometry"/>
                </mxCell>
                <mxCell id="108" value="" style="ellipse;html=1;shape=endState;fillColor=#000000;strokeColor=#ff0000;" vertex="1" parent="1">
                    <mxGeometry x="1960" y="1444.42" width="50" height="50" as="geometry"/>
                </mxCell>
                <mxCell id="136" value="" style="edgeStyle=none;html=1;" edge="1" parent="1" source="109" target="86">
                    <mxGeometry relative="1" as="geometry"/>
                </mxCell>
                <mxCell id="109" value="select&amp;nbsp;&lt;br&gt;user&lt;br&gt;sort&lt;br&gt;" style="shape=step;perimeter=stepPerimeter;whiteSpace=wrap;html=1;fixedSize=1;fillColor=#FFCCE6;" vertex="1" parent="1">
                    <mxGeometry x="1567.5" y="820" width="105" height="70" as="geometry"/>
                </mxCell>
                <mxCell id="137" value="prefectB" style="rounded=0;whiteSpace=wrap;html=1;fillColor=#FFFF99;" vertex="1" parent="1">
                    <mxGeometry x="1400" y="1249.71" width="65" height="20" as="geometry"/>
                </mxCell>
                <mxCell id="138" value="studentCard" style="rounded=0;whiteSpace=wrap;html=1;fillColor=#FFFF99;" vertex="1" parent="1">
                    <mxGeometry x="1392.5" y="1335.71" width="80" height="20" as="geometry"/>
                </mxCell>
                <mxCell id="139" value="prefectA" style="rounded=0;whiteSpace=wrap;html=1;fillColor=#FFFF99;" vertex="1" parent="1">
                    <mxGeometry x="1567.5" y="1249.71" width="65" height="20" as="geometry"/>
                </mxCell>
                <mxCell id="140" value="Other" style="rounded=0;whiteSpace=wrap;html=1;fillColor=#FFFF99;" vertex="1" parent="1">
                    <mxGeometry x="1810" y="1240" width="65" height="20" as="geometry"/>
                </mxCell>
                <mxCell id="141" value="studentCard" style="rounded=0;whiteSpace=wrap;html=1;fillColor=#FFFF99;" vertex="1" parent="1">
                    <mxGeometry x="1802.5" y="1335.71" width="80" height="20" as="geometry"/>
                </mxCell>
                <mxCell id="142" value="selectedStudent" style="rounded=0;whiteSpace=wrap;html=1;fillColor=#FFFF99;" vertex="1" parent="1">
                    <mxGeometry x="1635" y="920" width="95" height="20" as="geometry"/>
                </mxCell>
            </root>
        </mxGraphModel>
    </diagram>
</mxfile>